<svg width="178" height="105" viewBox="0 0 178 105" fill="none" xmlns="http://www.w3.org/2000/svg">
<path d="M169.5 0L171.796 6.20423L178 8.5L171.796 10.7958L169.5 17L167.204 10.7958L161 8.5L167.204 6.20423L169.5 0Z" fill="#0098EA"/>
<path d="M149 93L150.621 97.3795L155 99L150.621 100.621L149 105L147.379 100.621L143 99L147.379 97.3795L149 93Z" fill="#0098EA"/>
<path d="M31 87L31.8103 89.1897L34 90L31.8103 90.8103L31 93L30.1897 90.8103L28 90L30.1897 89.1897L31 87Z" fill="#0098EA"/>
<path d="M6 78L7.62054 82.3795L12 84L7.62054 85.6205L6 90L4.37946 85.6205L0 84L4.37946 82.3795L6 78Z" fill="#0098EA"/>
<path d="M37 21L38.6205 25.3795L43 27L38.6205 28.6205L37 33L35.3795 28.6205L31 27L35.3795 25.3795L37 21Z" fill="#0098EA"/>
<path d="M18.5 9L19.4453 11.5547L22 12.5L19.4453 13.4453L18.5 16L17.5547 13.4453L15 12.5L17.5547 11.5547L18.5 9Z" fill="#0098EA"/>
<path d="M102.5 4L103.445 6.55468L106 7.5L103.445 8.44532L102.5 11L101.555 8.44532L99 7.5L101.555 6.55468L102.5 4Z" fill="#0098EA"/>
<path d="M132.5 83L133.445 85.5547L136 86.5L133.445 87.4453L132.5 90L131.555 87.4453L129 86.5L131.555 85.5547L132.5 83Z" fill="#0098EA"/>
<path d="M145 17L146.08 19.9196L149 21L146.08 22.0804L145 25L143.92 22.0804L141 21L143.92 19.9196L145 17Z" fill="#0098EA"/>
</svg>
