<svg width="12" height="7" viewBox="0 0 12 7" fill="none" xmlns="http://www.w3.org/2000/svg">
<path fill-rule="evenodd" clip-rule="evenodd" d="M6.35333 6.85334C6.25958 6.94697 6.13249 6.99957 5.99999 6.99957C5.86749 6.99957 5.74041 6.94697 5.64666 6.85334L0.646661 1.85334C0.558341 1.75856 0.510259 1.63319 0.512544 1.50366C0.51483 1.37412 0.567304 1.25053 0.658913 1.15892C0.750522 1.06732 0.874112 1.01484 1.00365 1.01256C1.13318 1.01027 1.25854 1.05835 1.35333 1.14667L5.99999 5.79334L10.6467 1.14667C10.6924 1.09755 10.7476 1.05815 10.809 1.03082C10.8703 1.00349 10.9365 0.988796 11.0036 0.987611C11.0708 0.986427 11.1375 0.998776 11.1997 1.02392C11.262 1.04907 11.3185 1.0865 11.366 1.13398C11.4135 1.18146 11.4509 1.23802 11.4761 1.30027C11.5012 1.36253 11.5136 1.42922 11.5124 1.49635C11.5112 1.56349 11.4965 1.6297 11.4692 1.69103C11.4419 1.75236 11.4025 1.80756 11.3533 1.85334L6.35333 6.85334Z" fill="black"/>
</svg>
