<svg width="20" height="20" viewBox="0 0 20 20" fill="none" xmlns="http://www.w3.org/2000/svg">
<path d="M7.8125 2.50003C7.3981 2.50003 7.00067 2.66465 6.70764 2.95767C6.41462 3.2507 6.25 3.64812 6.25 4.06253C6.25 4.47693 6.41462 4.87435 6.70764 5.16738C7.00067 5.46041 7.3981 5.62503 7.8125 5.62503H9.375V9.37503H2.8125C2.3981 9.37503 2.00067 9.21041 1.70765 8.91738C1.41462 8.62436 1.25 8.22693 1.25 7.81253V7.18753C1.25 6.32419 1.95 5.62503 2.8125 5.62503H5.47333C5.06818 5.02316 4.91128 4.288 5.03544 3.57316C5.1596 2.85833 5.5552 2.21913 6.13958 1.78913C6.72396 1.35913 7.4519 1.1716 8.1713 1.26572C8.89071 1.35984 9.54591 1.72833 10 2.29419C10.4541 1.72833 11.1093 1.35984 11.8287 1.26572C12.5481 1.1716 13.276 1.35913 13.8604 1.78913C14.4448 2.21913 14.8404 2.85833 14.9646 3.57316C15.0887 4.288 14.9318 5.02316 14.5267 5.62503H17.8125C18.675 5.62503 19.375 6.32503 19.375 7.18753V7.81253C19.375 8.67586 18.675 9.37503 17.8125 9.37503H10.625V5.62503H12.1875C12.4965 5.62503 12.7986 5.53339 13.0556 5.3617C13.3125 5.19001 13.5128 4.94598 13.6311 4.66047C13.7493 4.37496 13.7803 4.06079 13.72 3.7577C13.6597 3.4546 13.5109 3.17619 13.2924 2.95767C13.0738 2.73915 12.7954 2.59034 12.4923 2.53005C12.1892 2.46976 11.8751 2.5007 11.5896 2.61896C11.304 2.73723 11.06 2.9375 10.8883 3.19445C10.7166 3.4514 10.625 3.75349 10.625 4.06253V5.62503H9.375V4.06253C9.375 3.19919 8.675 2.50003 7.8125 2.50003ZM9.375 10.625H2.5V16.25C2.5 16.7473 2.69754 17.2242 3.04917 17.5759C3.40081 17.9275 3.87772 18.125 4.375 18.125H9.375V10.625ZM10.625 10.625V18.125H16.25C16.7473 18.125 17.2242 17.9275 17.5758 17.5759C17.9275 17.2242 18.125 16.7473 18.125 16.25V10.625H10.625Z" fill="white"/>
</svg>
