<svg width="20" height="20" viewBox="0 0 20 20" fill="none" xmlns="http://www.w3.org/2000/svg">
<path d="M12.8457 6.12464C12.6045 6.12477 12.3708 6.20853 12.1844 6.36164C11.9981 6.51475 11.8706 6.72775 11.8236 6.96434C11.7767 7.20093 11.8132 7.44647 11.927 7.65913C12.0408 7.87179 12.2249 8.03842 12.4477 8.13062C12.6706 8.22282 12.9186 8.23488 13.1494 8.16476C13.3801 8.09464 13.5795 7.94668 13.7134 7.74607C13.8473 7.54546 13.9075 7.30463 13.8838 7.0646C13.8601 6.82457 13.7538 6.6002 13.5832 6.42971C13.4864 6.33276 13.3715 6.2559 13.2449 6.20354C13.1183 6.15119 12.9827 6.12437 12.8457 6.12464Z" fill="white"/>
<path d="M18.65 1.95544C18.6498 1.95428 18.6498 1.95309 18.65 1.95193C18.617 1.80713 18.5441 1.67444 18.4397 1.56884C18.3353 1.46323 18.2034 1.38892 18.059 1.35427C16.8949 1.07029 15.0637 1.37302 13.0344 2.18552C10.9891 3.00583 9.07266 4.21677 7.77735 5.51443C7.36217 5.9274 6.97646 6.36898 6.62305 6.83591C5.75078 6.79685 4.98242 6.92107 4.33516 7.20349C2.07969 8.19607 1.43555 10.7363 1.26407 11.7793C1.23925 11.9275 1.24897 12.0794 1.29246 12.2232C1.33595 12.367 1.41204 12.4989 1.51481 12.6085C1.61758 12.7181 1.74426 12.8025 1.88499 12.8552C2.02571 12.9078 2.17669 12.9273 2.32617 12.9121H2.33125L4.84375 12.6379C4.84688 12.6699 4.85039 12.6992 4.85313 12.7261C4.8854 13.0323 5.02193 13.3181 5.23985 13.5355L6.46602 14.7625C6.68315 14.9807 6.96885 15.1174 7.275 15.1496L7.35899 15.1586L7.08555 17.6679V17.673C7.07158 17.8082 7.08596 17.9447 7.12777 18.074C7.16959 18.2033 7.23792 18.3224 7.3284 18.4238C7.41888 18.5251 7.52951 18.6065 7.65323 18.6627C7.77694 18.7188 7.91102 18.7486 8.04688 18.75C8.10119 18.75 8.15541 18.7456 8.20899 18.7367C9.25782 18.5679 11.7969 17.9316 12.7867 15.664C13.0668 15.0211 13.1906 14.2558 13.1559 13.3851C13.6249 13.0325 14.0681 12.6467 14.482 12.2308C15.7879 10.9316 17.0027 9.03083 17.8145 7.01521C18.6227 5.00896 18.927 3.16404 18.65 1.95544ZM14.468 8.78669C14.147 9.10799 13.738 9.32687 13.2926 9.41565C12.8472 9.50442 12.3855 9.4591 11.9658 9.28541C11.5462 9.11173 11.1875 8.81748 10.9352 8.4399C10.6828 8.06232 10.5481 7.61838 10.5481 7.16423C10.5481 6.71008 10.6828 6.26614 10.9352 5.88856C11.1875 5.51098 11.5462 5.21673 11.9658 5.04305C12.3855 4.86936 12.8472 4.82404 13.2926 4.91281C13.738 5.00159 14.147 5.22047 14.468 5.54177C14.6831 5.75367 14.8539 6.00624 14.9706 6.28478C15.0872 6.56332 15.1472 6.86227 15.1472 7.16423C15.1472 7.46619 15.0872 7.76514 14.9706 8.04368C14.8539 8.32222 14.6831 8.57479 14.468 8.78669Z" fill="white"/>
<path d="M6.32539 15.0953C6.17424 15.0766 6.02144 15.1137 5.8957 15.1996C5.64609 15.3703 5.39531 15.5391 5.14219 15.7035C4.63008 16.0364 4.01758 15.452 4.32187 14.9223L4.79648 14.102C4.86434 14.0027 4.90212 13.886 4.9053 13.7658C4.90848 13.6456 4.87693 13.5271 4.81442 13.4243C4.75191 13.3216 4.6611 13.2391 4.55289 13.1867C4.44467 13.1343 4.32363 13.1143 4.2043 13.1289C3.67754 13.1955 3.1879 13.4355 2.8125 13.811C2.66953 13.9543 2.23476 14.3895 2.00078 16.0477C1.93418 16.524 1.8922 17.0034 1.875 17.484C1.87286 17.5674 1.88745 17.6504 1.9179 17.7281C1.94835 17.8058 1.99405 17.8766 2.0523 17.9363C2.11055 17.9961 2.18017 18.0436 2.25706 18.076C2.33396 18.1084 2.41656 18.1251 2.5 18.125H2.51562C2.99661 18.108 3.47641 18.0663 3.95312 18C5.61211 17.7657 6.04726 17.3305 6.19023 17.1875C6.56745 16.812 6.80681 16.32 6.86953 15.7914C6.88961 15.627 6.84358 15.4613 6.74155 15.3308C6.63951 15.2002 6.48983 15.1156 6.32539 15.0953Z" fill="white"/>
</svg>
