<svg width="12" height="12" viewBox="0 0 12 12" fill="none" xmlns="http://www.w3.org/2000/svg">
<path d="M9.75712 0.141235H2.24292C0.861757 0.141235 -0.00969297 1.62928 0.68089 2.8378L5.31766 10.8782C5.62185 11.4043 6.3782 11.4043 6.68238 10.8782L11.3192 2.8378C12.0097 1.62928 11.1383 0.141235 9.75712 0.141235ZM5.30944 8.46111L4.29823 6.50446L1.86475 2.14722C1.74965 1.94168 1.82364 1.68683 2.02095 1.56351C2.08672 1.5224 2.16071 1.50596 2.2347 1.50596H5.30122L5.30944 8.46111ZM10.1271 2.14722L7.6936 6.50446L6.68238 8.46111V1.51418H9.75712C10.0942 1.50596 10.2915 1.86769 10.1271 2.14722Z" fill="white"/>
</svg>
