<svg width="12" height="12" viewBox="0 0 12 12" fill="none" xmlns="http://www.w3.org/2000/svg">
<path fill-rule="evenodd" clip-rule="evenodd" d="M5.99999 0C6.14466 0 6.28339 0.0574673 6.38569 0.15976C6.48798 0.262052 6.54545 0.400791 6.54545 0.545455V5.45455H11.4545C11.5992 5.45455 11.7379 5.51201 11.8402 5.61431C11.9425 5.7166 12 5.85534 12 6C12 6.14466 11.9425 6.2834 11.8402 6.38569C11.7379 6.48799 11.5992 6.54546 11.4545 6.54546H6.54545V11.4545C6.54545 11.5992 6.48798 11.7379 6.38569 11.8402C6.28339 11.9425 6.14466 12 5.99999 12C5.85533 12 5.71659 11.9425 5.6143 11.8402C5.51201 11.7379 5.45454 11.5992 5.45454 11.4545V6.54546H0.545447C0.400783 6.54546 0.262045 6.48799 0.159752 6.38569C0.0574597 6.2834 -7.62939e-06 6.14466 -7.62939e-06 6C-7.62939e-06 5.85534 0.0574597 5.7166 0.159752 5.61431C0.262045 5.51201 0.400783 5.45455 0.545447 5.45455H5.45454V0.545455C5.45454 0.400791 5.51201 0.262052 5.6143 0.15976C5.71659 0.0574673 5.85533 0 5.99999 0Z" fill="white"/>
</svg>
