<svg width="20" height="20" viewBox="0 0 20 20" fill="none" xmlns="http://www.w3.org/2000/svg">
<path d="M13.125 10C12.3219 10 11.5453 9.64141 10.9375 8.99063C10.3465 8.35586 9.98553 7.50938 9.92186 6.60781C9.85389 5.64609 10.1473 4.76172 10.7476 4.11719C11.348 3.47266 12.1875 3.125 13.125 3.125C14.0558 3.125 14.8976 3.47891 15.4961 4.12187C16.1004 4.77109 16.3945 5.65391 16.3266 6.60742C16.2613 7.51016 15.9008 8.35625 15.3109 8.99023C14.7047 9.64141 13.9285 10 13.125 10ZM18.2746 16.875H7.97577C7.81019 16.8759 7.64661 16.8388 7.49762 16.7665C7.34864 16.6943 7.21821 16.5888 7.11639 16.4582C7.00839 16.3167 6.9338 16.1525 6.89822 15.978C6.86264 15.8036 6.86698 15.6233 6.91092 15.4508C7.23983 14.1301 8.05467 13.0348 9.26717 12.2836C10.3433 11.6172 11.7133 11.25 13.125 11.25C14.5644 11.25 15.8984 11.6016 16.9808 12.2676C18.1961 13.0148 19.0121 14.1164 19.3394 15.4531C19.3829 15.6258 19.3867 15.806 19.3507 15.9804C19.3147 16.1548 19.2398 16.3188 19.1316 16.4602C19.0299 16.5901 18.8998 16.6951 18.7512 16.767C18.6027 16.8389 18.4396 16.8758 18.2746 16.875ZM5.74217 10.1563C4.36756 10.1563 3.15897 8.87813 3.04686 7.30742C2.99139 6.50273 3.24217 5.75859 3.74999 5.21289C4.25233 4.67266 4.96092 4.375 5.74217 4.375C6.52342 4.375 7.22655 4.67422 7.73163 5.21758C8.24335 5.76758 8.49335 6.51016 8.43475 7.3082C8.32264 8.87852 7.11444 10.1563 5.74217 10.1563ZM8.30702 11.3848C7.61991 11.0488 6.72811 10.8809 5.74256 10.8809C4.59178 10.8809 3.47421 11.1809 2.5953 11.7254C1.59881 12.3438 0.928502 13.2441 0.657799 14.3313C0.618183 14.4876 0.614437 14.6509 0.646838 14.8089C0.67924 14.9669 0.746951 15.1156 0.844908 15.2438C0.937856 15.3631 1.05693 15.4595 1.19298 15.5256C1.32903 15.5917 1.47842 15.6257 1.62967 15.625H5.96561C6.03879 15.625 6.10965 15.5993 6.16583 15.5524C6.22201 15.5055 6.25995 15.4404 6.27303 15.3684C6.27733 15.3438 6.2828 15.3191 6.28905 15.2949C6.6203 13.9645 7.39647 12.8402 8.54335 12.0207C8.58553 11.9903 8.61946 11.9498 8.64206 11.903C8.66465 11.8562 8.67521 11.8045 8.67277 11.7525C8.67032 11.7006 8.65496 11.6501 8.62806 11.6056C8.60116 11.5611 8.56359 11.524 8.51874 11.4977C8.45741 11.4617 8.3871 11.4238 8.30702 11.3848Z" fill="white"/>
</svg>
